# xmcd
# 
# Track frame offsets:
#     150
#     19506
#     34733
#     58306
#     79978
#     105919
#     131855
#     149631
#     171114
#     197500
#     222996
#     241066
#     258725
#     274378
#     301004
#     326521
# 
# Disc length: 4693
# 
# Revision: 2
# Processed by: cddbd v1.5.2PL0 Copyright (c) Steve Scherf et al.
# Submitted via: fre:ac v1.0.17
# 
DISCID=e9125310
DTITLE=Robert Harris - Pompeii CD1
DYEAR=2004
DGENRE=Audiobook
TTITLE0=01 Conticinium
TTITLE1=02 Conticinium
TTITLE2=03 Conticinium
TTITLE3=04 Conticinium
TTITLE4=05 Conticinium
TTITLE5=06 Hora Undecima
TTITLE6=07 Hora Undecima
TTITLE7=08 Hora Undecima
TTITLE8=09 Hora Undecima
TTITLE9=10 Hora Undecima
TTITLE10=11 Hora Undecima
TTITLE11=12 Hora Undecima
TTITLE12=13 Hora Undecima
TTITLE13=14 Hora Undecima
TTITLE14=15 Hora Duodecima
TTITLE15=16 Hora Duodecima
EXTD=
EXTT0=
EXTT1=
EXTT2=
EXTT3=
EXTT4=
EXTT5=
EXTT6=
EXTT7=
EXTT8=
EXTT9=
EXTT10=
EXTT11=
EXTT12=
EXTT13=
EXTT14=
EXTT15=
PLAYORDER=
